<svg width="25" height="24" viewBox="0 0 25 24" fill="none" xmlns="http://www.w3.org/2000/svg">
<g id="heroicons-solid/hand-thumb-up">
<g id="Union">
<path d="M7.74281 18.5002C7.31823 18.5002 6.92296 18.2637 6.76759 17.8686C6.43349 17.0189 6.25 16.0935 6.25 15.1252C6.25 13.3762 6.84874 11.7669 7.85244 10.4913C8.00335 10.2995 8.22456 10.1823 8.45214 10.0942C8.92496 9.91116 9.34254 9.57992 9.6641 9.16991C10.4373 8.18408 11.4117 7.36364 12.5255 6.77046C13.2477 6.38588 13.8743 5.81453 14.1781 5.05488C14.3908 4.52334 14.5 3.95611 14.5 3.38362V2.75024C14.5 2.33603 14.8358 2.00024 15.25 2.00024C16.4926 2.00024 17.5 3.0076 17.5 4.25024C17.5 5.40187 17.2404 6.49288 16.7766 7.46795C16.511 8.02629 16.8836 8.75024 17.5019 8.75024H20.6277C21.6544 8.75024 22.5733 9.44424 22.682 10.4651C22.7269 10.8873 22.75 11.3161 22.75 11.7502C22.75 14.5979 21.7581 17.2138 20.101 19.2715C19.7134 19.7528 19.1142 20.0002 18.4962 20.0002H14.4802C13.9966 20.0002 13.5161 19.9223 13.0572 19.7693L9.94278 18.7312C9.48393 18.5782 9.00342 18.5002 8.51975 18.5002H7.74281Z" fill="white"/>
<path d="M2.58149 10.7274C2.04481 12.0892 1.75 13.5728 1.75 15.1252C1.75 16.3453 1.93208 17.5229 2.27056 18.6322C2.52991 19.4822 3.35418 20.0002 4.24289 20.0002H5.15067C5.5962 20.0002 5.87137 19.502 5.67423 19.1024C5.08248 17.9032 4.75 16.553 4.75 15.1252C4.75 13.4171 5.22588 11.82 6.0523 10.4595C6.2973 10.0562 6.02404 9.50024 5.55212 9.50024H4.49936C3.66733 9.50024 2.88655 9.95328 2.58149 10.7274Z" fill="white"/>
</g>
</g>
</svg>
